<svg xmlns="http://www.w3.org/2000/svg" xmlns:svg="http://www.w3.org/2000/svg" id="Capa_1" width="22" height="22" x="0" y="0" version="1.1" viewBox="0 0 22 22" xml:space="preserve"><metadata id="metadata42"/><g id="g3" transform="matrix(0.04357298,0,0,0.04357298,1,1)" style="fill:#fff;fill-opacity:1"><g id="select-all" style="fill:#fff;fill-opacity:1"><path id="path6" d="M 0,51 H 51 V 0 C 22.95,0 0,22.95 0,51 Z M 0,255 H 51 V 204 H 0 Z m 102,204 h 51 V 408 H 102 Z M 0,153 H 51 V 102 H 0 Z M 255,0 h -51 v 51 h 51 z m 153,0 v 51 h 51 C 459,22.95 436.05,0 408,0 Z M 51,459 V 408 H 0 c 0,28.05 22.95,51 51,51 z M 0,357 H 51 V 306 H 0 Z M 153,0 h -51 v 51 h 51 z m 51,459 h 51 V 408 H 204 Z M 408,255 h 51 v -51 h -51 z m 0,204 c 28.05,0 51,-22.95 51,-51 h -51 z m 0,-306 h 51 v -51 h -51 z m 0,204 h 51 V 306 H 408 Z M 306,459 h 51 v -51 h -51 z m 0,-408 h 51 V 0 H 306 Z M 102,357 H 357 V 102 H 102 Z M 153,153 H 306 V 306 H 153 Z" style="fill:#fff;fill-opacity:1"/></g></g></svg>